<?xml version="1.0" standalone="no"?>
<!DOCTYPE svg PUBLIC "-//W3C//DTD SVG 20010904//EN"
 "http://www.w3.org/TR/2001/REC-SVG-20010904/DTD/svg10.dtd">
<svg version="1.0" xmlns="http://www.w3.org/2000/svg"
 width="615.000000pt" height="525.000000pt" viewBox="0 0 615.000000 525.000000"
 preserveAspectRatio="xMidYMid meet">

<g transform="translate(0.000000,525.000000) scale(0.100000,-0.100000)"
fill="#000000" stroke="none">
<path d="M2983 4743 c-32 -27 -73 -64 -91 -83 -18 -19 -221 -226 -452 -459
-231 -233 -420 -425 -420 -427 0 -3 -12 -23 -27 -46 l-28 -42 0 -853 0 -853
34 -31 c24 -22 44 -31 67 -31 35 0 84 31 96 60 4 9 7 182 7 383 l1 367 23 6
c33 9 680 7 694 -2 9 -6 13 -100 15 -362 2 -274 6 -361 16 -381 8 -15 34 -35
62 -48 46 -21 55 -21 619 -21 646 0 615 -4 627 75 7 53 -11 96 -46 106 -14 4
-260 7 -546 8 -466 1 -523 3 -528 17 -8 20 -8 562 0 592 l6 22 318 0 c306 0
318 1 344 21 22 17 26 28 26 71 0 37 -5 55 -17 64 -14 10 -88 13 -340 14 -310
0 -323 1 -333 20 -7 12 -9 108 -8 267 l3 247 25 7 c14 4 226 7 472 8 464 1
470 1 569 44 32 13 79 99 79 143 0 58 -49 121 -250 323 -110 111 -200 205
-200 211 0 5 -5 10 -11 10 -6 0 -29 17 -50 39 -22 21 -39 44 -39 50 0 6 -5 11
-11 11 -6 0 -110 100 -232 223 -286 286 -274 277 -353 277 -60 0 -65 -2 -121
-47z m223 -263 c54 -55 104 -104 109 -110 6 -6 39 -40 75 -75 36 -36 70 -70
76 -77 6 -7 20 -21 30 -30 11 -9 24 -23 30 -30 6 -7 26 -27 45 -44 19 -17 42
-40 51 -50 9 -11 23 -24 30 -30 7 -6 38 -39 70 -72 31 -34 61 -62 67 -62 6 0
11 -4 11 -9 0 -5 48 -57 106 -116 59 -58 103 -109 99 -113 -3 -4 -219 -8 -478
-9 -260 -2 -490 -5 -512 -8 -48 -7 -88 -39 -103 -85 -8 -22 -12 -129 -12 -325
0 -271 -1 -293 -18 -309 -17 -15 -53 -16 -363 -14 l-344 3 -3 369 -2 369 327
329 c181 181 387 389 458 462 72 74 135 134 141 135 6 0 55 -44 110 -99z"/>
<path d="M3626 1381 c-4 -5 -31 -15 -61 -21 -65 -13 -72 -32 -21 -57 25 -11
36 -24 40 -47 8 -38 7 -678 -1 -717 -4 -23 -14 -31 -44 -41 -27 -8 -39 -17
-39 -30 0 -17 11 -18 136 -18 104 0 135 3 132 13 -3 6 -15 17 -27 23 -47 24
-46 15 -51 467 l-5 432 -27 3 c-14 2 -29 -1 -32 -7z"/>
<path d="M276 1334 c-36 -35 -4 -124 44 -124 27 0 60 39 60 70 0 59 -65 93
-104 54z"/>
<path d="M5230 1330 c-23 -23 -27 -78 -7 -102 21 -27 64 -31 87 -8 31 31 35
65 10 100 -25 35 -60 40 -90 10z"/>
<path d="M653 1046 c-18 -6 -33 -14 -33 -18 0 -4 -7 -8 -16 -8 -26 0 -54 -20
-48 -34 3 -8 19 -20 35 -26 l29 -12 0 -213 c0 -232 1 -229 -59 -241 -22 -5
-31 -12 -29 -23 3 -14 22 -16 136 -16 80 0 133 4 134 10 1 6 -17 20 -40 33
l-42 23 0 186 c0 170 2 188 21 219 11 18 34 40 51 49 32 15 128 21 128 7 0 -4
10 -12 23 -17 12 -6 26 -20 32 -32 5 -13 13 -23 17 -23 5 0 8 -88 8 -195 l0
-195 -37 -18 c-37 -17 -53 -30 -53 -44 0 -5 61 -8 135 -8 126 0 135 1 135 19
0 13 -9 21 -29 26 -16 3 -32 14 -36 23 -4 9 -8 98 -10 197 -2 202 3 224 57
244 18 7 41 17 50 22 24 12 85 11 93 -2 4 -5 17 -14 29 -19 36 -13 46 -70 46
-268 l0 -181 -39 -11 c-40 -10 -66 -32 -54 -43 8 -8 283 -9 283 -1 0 8 -27 34
-37 34 -4 1 -18 9 -30 19 -20 17 -21 28 -25 217 -4 214 -8 233 -61 286 -60 60
-205 56 -256 -6 -8 -9 -18 -16 -23 -16 -5 0 -16 -7 -24 -15 -21 -21 -24 -20
-71 26 -67 63 -157 68 -261 13 -48 -25 -62 -24 -62 6 0 27 -29 38 -67 26z"/>
<path d="M1755 1039 c-27 -12 -60 -25 -72 -30 -23 -9 -22 -39 1 -39 7 0 22 -9
34 -21 22 -20 23 -26 22 -211 -1 -105 -6 -201 -10 -214 -6 -14 -22 -26 -42
-32 -18 -4 -34 -16 -36 -25 -3 -15 10 -17 132 -17 145 0 161 6 103 40 -19 11
-39 32 -45 46 -19 40 -16 304 4 364 21 63 62 90 137 90 44 -1 57 -5 86 -32 43
-39 50 -73 51 -249 0 -175 -4 -196 -44 -213 -17 -7 -37 -20 -45 -29 -12 -16
-2 -17 134 -17 130 0 146 2 141 16 -3 9 -6 18 -6 20 0 2 -8 4 -18 4 -10 0 -28
9 -40 20 -21 20 -22 28 -22 203 0 100 3 192 6 204 8 28 95 73 144 73 47 0 91
-24 113 -63 14 -24 17 -60 17 -223 l0 -194 -45 -12 c-32 -9 -45 -17 -45 -30 0
-16 12 -18 140 -18 77 0 140 4 140 8 0 4 -10 14 -21 22 -67 47 -62 30 -69 246
-7 217 -13 241 -73 296 -54 50 -160 49 -234 -3 -23 -16 -46 -29 -52 -29 -6 0
-11 -4 -11 -10 0 -22 -41 -8 -72 24 -62 64 -155 68 -261 12 l-47 -26 -17 35
c-9 19 -19 35 -22 35 -3 -1 -28 -10 -56 -21z"/>
<path d="M3000 1047 c-19 -6 -40 -16 -47 -22 -6 -7 -24 -17 -40 -24 -61 -26
-132 -165 -133 -260 0 -128 103 -263 222 -292 72 -17 238 4 238 30 0 4 16 16
35 27 19 10 35 22 35 26 0 4 9 16 20 26 31 28 63 119 68 189 3 52 -1 72 -22
117 -14 30 -26 57 -26 60 0 12 -79 84 -98 91 -12 3 -22 10 -22 15 0 12 -92 30
-148 29 -26 -1 -63 -6 -82 -12z m143 -41 c39 -16 94 -76 114 -125 24 -57 28
-177 9 -245 -19 -65 -75 -130 -120 -142 -71 -17 -175 26 -192 81 -4 10 -12 25
-19 32 -7 7 -19 43 -25 81 -14 77 0 201 26 227 8 7 14 17 14 22 1 19 43 56 78
69 48 17 75 17 115 0z"/>
<path d="M4066 1049 c-22 -5 -47 -16 -56 -24 -9 -8 -21 -15 -27 -15 -12 0 -82
-74 -106 -111 -8 -13 -22 -52 -31 -87 -16 -66 -13 -100 20 -198 18 -51 79
-115 137 -143 91 -44 254 -34 302 19 10 11 22 20 28 20 9 0 67 58 67 67 0 3
12 28 26 57 21 42 26 64 25 130 0 51 -5 84 -14 95 -7 9 -19 29 -25 44 -14 33
-63 97 -75 97 -4 0 -25 12 -46 26 -31 20 -55 26 -113 29 -40 2 -91 0 -112 -6z
m154 -50 c68 -33 126 -169 117 -273 -9 -115 -46 -184 -117 -221 -107 -55 -238
40 -259 188 -12 83 7 217 30 217 5 0 9 6 9 13 0 17 58 73 90 86 29 12 94 7
130 -10z"/>
<path d="M4711 1049 c-25 -5 -47 -12 -50 -17 -3 -5 -15 -14 -27 -20 -11 -6
-33 -29 -48 -51 -24 -34 -28 -51 -30 -108 -1 -83 13 -120 59 -152 19 -13 35
-31 35 -40 0 -9 -21 -38 -45 -64 -25 -27 -45 -52 -45 -57 0 -19 13 -40 25 -40
6 0 20 -9 30 -20 20 -22 20 -23 -49 -94 -42 -44 -56 -73 -56 -113 0 -36 74
-108 125 -122 53 -15 169 -14 225 2 121 34 220 137 220 230 0 31 -28 87 -44
87 -9 0 -16 4 -16 10 0 15 -68 28 -185 35 -104 6 -151 17 -167 40 -13 17 -9
25 24 56 29 26 39 29 100 29 86 0 114 11 164 66 55 60 72 118 52 176 -26 75
-27 73 19 76 32 2 44 8 48 24 10 29 -2 36 -75 41 -36 3 -96 12 -135 21 -78 17
-91 18 -154 5z m115 -40 c16 -5 40 -27 54 -47 22 -33 25 -48 25 -125 0 -51 -4
-91 -11 -95 -6 -4 -14 -15 -17 -25 -4 -11 -16 -21 -27 -24 -11 -3 -20 -9 -20
-14 0 -16 -74 -9 -97 9 -53 41 -73 82 -73 152 0 133 70 204 166 169z m60 -578
c5 -5 26 -14 46 -20 42 -14 68 -48 68 -90 0 -23 -11 -39 -47 -69 -58 -50 -128
-67 -218 -52 -33 5 -61 10 -62 10 -1 0 -15 14 -32 31 -57 57 -29 135 61 168
18 7 40 17 48 21 20 12 123 12 136 1z"/>
<path d="M5648 1050 c-64 -19 -128 -98 -128 -158 0 -54 59 -131 115 -149 11
-3 24 -12 30 -18 5 -7 27 -18 48 -25 21 -6 50 -23 64 -36 23 -21 27 -34 27
-80 1 -47 -3 -58 -24 -74 -25 -20 -91 -25 -137 -12 -26 8 -69 69 -81 115 -11
44 -37 47 -46 6 -13 -69 -7 -98 28 -133 27 -28 44 -36 91 -41 79 -10 143 1
188 32 62 43 81 77 81 148 0 69 -26 115 -75 136 -16 6 -29 14 -29 18 0 4 -22
15 -50 25 -27 10 -50 21 -50 25 0 4 -16 13 -35 20 -45 16 -59 42 -51 96 8 48
32 65 94 65 50 -1 73 -16 119 -75 l38 -50 3 40 c6 66 -12 109 -51 123 -37 13
-128 15 -169 2z"/>
<path d="M270 1024 c-66 -24 -75 -37 -42 -61 42 -31 42 -28 42 -231 0 -108 -5
-204 -10 -212 -5 -8 -24 -20 -42 -26 -18 -6 -34 -18 -36 -27 -3 -15 11 -17
127 -17 74 0 131 4 131 9 0 12 -26 38 -51 51 -18 10 -19 27 -21 273 -3 224 -5
262 -18 264 -8 0 -44 -9 -80 -23z"/>
<path d="M5285 1043 c-11 -3 -24 -9 -30 -13 -5 -5 -27 -11 -47 -15 -46 -9 -51
-37 -10 -57 l27 -13 0 -220 0 -220 -35 -11 c-19 -7 -35 -18 -35 -25 0 -11 26
-15 114 -17 63 -1 121 0 128 2 17 7 6 33 -17 39 -42 11 -50 58 -52 311 -2 149
-7 240 -13 241 -5 2 -19 0 -30 -2z"/>
</g>
</svg>
